# xmcd
#
# Track frame offsets:
# 150
# 19169
# 38405
# 62905
# 81235
# 105553
# 125339
# 144174
# 157826
# 172652
# 191426
# 207357
#
# Disc length: 3026 seconds
#
#
# Revision: 0
# Processed by: cddbd v1.5PL3 Copyright (c) Steve Scherf et al.
# Submitted via: FreeRIP 2.53 
#
DISCID=8d0bd00c
DTITLE=Clarence Bucaro - Sense of light
DYEAR=2004
DGENRE=Country
TTITLE0=Of a trade
TTITLE1=Sugar maples
TTITLE2=Father of our nation
TTITLE3=Light me a candle
TTITLE4=Wartime prayer
TTITLE5=All living things
TTITLE6=Winter killed the roses
TTITLE7=Carolina moon
TTITLE8=Further away from you
TTITLE9=Italian skies
TTITLE10=Sweet on you
TTITLE11=Leave a light on
EXTD=
EXTT0=
EXTT1=
EXTT2=
EXTT3=
EXTT4=
EXTT5=
EXTT6=
EXTT7=
EXTT8=
EXTT9=
EXTT10=
EXTT11=
PLAYORDER=
